#N canvas 970 127 770 714 10;
#X msg 163 282 stop;
#X obj 163 348 writesf~ 2;
#X obj 254 352 print;
#X obj 44 180 pr_play~;
#N canvas 340 160 450 300 bang_on_sound 0;
#X obj 169 51 inlet~;
#X obj 171 180 outlet;
#X obj 168 79 env~;
#X obj 168 145 sel 1;
#X obj 168 122 change;
#X obj 168 101 > 0;
#X obj 245 179 outlet;
#X obj 247 146 sel 0;
#X connect 0 0 2 0;
#X connect 2 0 5 0;
#X connect 3 0 1 0;
#X connect 4 0 3 0;
#X connect 4 0 7 0;
#X connect 5 0 4 0;
#X connect 7 0 6 0;
#X restore 70 213 pd bang_on_sound;
#X obj 70 239 bng 15 250 50 0 empty empty empty 17 7 0 10 -262144 -1
-1;
#X obj 163 240 bng 15 250 50 0 empty empty empty 17 7 0 10 -262144
-1 -1;
#X msg 44 150 0 foo;
#X obj 44 124 del 2;
#X floatatom 346 93 5 0 0 0 - - -;
#X obj 346 20 r grund_pitch;
#X floatatom 269 163 5 0 0 0 - - -;
#X obj 211 86 bng 15 250 50 0 empty empty empty 17 7 0 10 -262144 -1
-1;
#X msg 327 162 \$1;
#X obj 327 135 \$1;
#X floatatom 413 50 5 0 0 0 - - -;
#X obj 398 109 -;
#X floatatom 398 134 5 0 0 0 - - -;
#X floatatom 440 239 5 0 0 0 - - -;
#X obj 383 179 +;
#X obj 346 71 int;
#X obj 346 49 + 0.5;
#X obj 327 189 +;
#X obj 210 153 del 105;
#X text 103 178 Spelare;
#X text 250 224 filnamet;
#X msg 240 325 Saved audio \$1 .wav;
#X text 432 133 skillnad;
#X text 409 181 Hur mkt som ska pitchas;
#X obj 63 610 fft-pitchshifter;
#X obj 297 571 pow 2;
#X obj 297 511 hradio 15 1 0 8 empty empty empty 0 -8 0 10 -261234
-1 -1 4;
#X msg 297 551 2;
#X obj 297 530 t b f;
#X obj 296 593 * 128;
#X floatatom 309 621 5 0 0 0 - - -;
#X msg 353 463 4;
#X obj 297 480 del 1;
#X obj 425 431 loadbang;
#X obj 214 190 f;
#X msg 212 214 \$1;
#X msg 267 283 open \$1.wav \, start;
#X obj 219 287 list;
#X obj 96 283 del 20;
#X obj 96 310 s rakna;
#X obj 222 244 makefilename fft%d;
#X obj 302 439 * 100;
#X connect 0 0 1 0;
#X connect 3 0 4 0;
#X connect 3 0 29 0;
#X connect 4 0 5 0;
#X connect 4 1 6 0;
#X connect 6 0 0 0;
#X connect 6 0 42 0;
#X connect 6 0 43 0;
#X connect 7 0 3 0;
#X connect 8 0 7 0;
#X connect 9 0 16 0;
#X connect 9 0 22 1;
#X connect 10 0 15 0;
#X connect 10 0 21 0;
#X connect 10 0 12 0;
#X connect 11 0 39 1;
#X connect 12 0 14 0;
#X connect 12 0 8 0;
#X connect 12 0 23 0;
#X connect 12 0 36 0;
#X connect 12 0 37 0;
#X connect 13 0 19 0;
#X connect 13 0 22 0;
#X connect 14 0 13 0;
#X connect 15 0 16 1;
#X connect 16 0 17 0;
#X connect 17 0 19 1;
#X connect 18 0 46 0;
#X connect 19 0 18 0;
#X connect 20 0 9 0;
#X connect 21 0 20 0;
#X connect 22 0 11 0;
#X connect 23 0 39 0;
#X connect 26 0 2 0;
#X connect 29 0 1 0;
#X connect 29 0 1 1;
#X connect 30 0 34 0;
#X connect 31 0 33 0;
#X connect 32 0 30 0;
#X connect 33 0 32 0;
#X connect 33 1 30 1;
#X connect 34 0 29 2;
#X connect 34 0 35 0;
#X connect 36 0 31 0;
#X connect 37 0 31 0;
#X connect 38 0 36 0;
#X connect 39 0 40 0;
#X connect 40 0 45 0;
#X connect 41 0 1 0;
#X connect 42 0 26 0;
#X connect 43 0 44 0;
#X connect 45 0 41 0;
#X connect 45 0 42 1;
#X connect 46 0 29 1;
