#N canvas 1049 175 770 704 10;
#X msg 153 272 stop;
#X obj 153 338 writesf~ 2;
#X obj 229 336 print;
#X obj 34 170 pr_play~;
#N canvas 340 160 450 300 bang_on_sound 0;
#X obj 169 51 inlet~;
#X obj 171 180 outlet;
#X obj 168 79 env~;
#X obj 168 145 sel 1;
#X obj 168 122 change;
#X obj 168 101 > 0;
#X obj 245 179 outlet;
#X obj 247 146 sel 0;
#X connect 0 0 2 0;
#X connect 2 0 5 0;
#X connect 3 0 1 0;
#X connect 4 0 3 0;
#X connect 4 0 7 0;
#X connect 5 0 4 0;
#X connect 7 0 6 0;
#X restore 60 203 pd bang_on_sound;
#X obj 60 229 bng 15 250 50 0 empty empty empty 17 7 0 10 -262144 -1
-1;
#X obj 153 230 bng 15 250 50 0 empty empty empty 17 7 0 10 -262144
-1 -1;
#X msg 200 260 open \$1.wav \, start;
#X msg 34 140 0 foo;
#X obj 34 114 del 2;
#X floatatom 336 83 5 0 0 0 - - -;
#X obj 336 10 r grund_pitch;
#X floatatom 268 159 5 0 0 0 - - -;
#X obj 208 82 bng 15 250 50 0 empty empty empty 17 7 0 10 -262144 -1
-1;
#X msg 317 152 \$1;
#X obj 317 125 \$1;
#X floatatom 403 40 5 0 0 0 - - -;
#X obj 388 99 -;
#X floatatom 388 124 5 0 0 0 - - -;
#X floatatom 425 279 5 0 0 0 - - -;
#X obj 373 169 +;
#X obj 336 61 int;
#X obj 336 39 + 0.5;
#X obj 317 179 +;
#X text 93 168 Spelare;
#X msg 227 309 Saved audio \$1 .wav;
#X text 422 123 skillnad;
#X text 399 171 Hur mkt som ska pitchas;
#X msg 329 502 transpose \$1;
#X floatatom 329 483 5 0 0 0 - - -;
#X obj 167 514 pitchshifter~;
#X obj 486 375 bng 15 250 50 0 empty empty empty 17 7 0 10 -262144
-1 -1;
#X text 239 209 filnamet;
#X obj 208 175 f;
#X msg 208 199 \$1;
#X obj 208 229 makefilename pitch%d;
#X obj 200 287 list;
#X obj 93 259 del 20;
#X obj 93 286 s rakna;
#X msg 271 530 window 100;
#X msg 290 557 delay 300;
#X obj 208 143 del 333;
#X connect 0 0 1 0;
#X connect 3 0 4 0;
#X connect 3 0 30 0;
#X connect 4 0 5 0;
#X connect 4 1 6 0;
#X connect 6 0 0 0;
#X connect 6 0 36 0;
#X connect 6 0 37 0;
#X connect 7 0 1 0;
#X connect 8 0 3 0;
#X connect 9 0 8 0;
#X connect 10 0 17 0;
#X connect 10 0 23 1;
#X connect 11 0 16 0;
#X connect 11 0 22 0;
#X connect 11 0 13 0;
#X connect 12 0 33 1;
#X connect 13 0 15 0;
#X connect 13 0 9 0;
#X connect 13 0 41 0;
#X connect 14 0 20 0;
#X connect 14 0 23 0;
#X connect 15 0 14 0;
#X connect 16 0 17 1;
#X connect 17 0 18 0;
#X connect 18 0 20 1;
#X connect 19 0 31 0;
#X connect 19 0 29 0;
#X connect 20 0 19 0;
#X connect 21 0 10 0;
#X connect 22 0 21 0;
#X connect 23 0 12 0;
#X connect 25 0 2 0;
#X connect 28 0 30 1;
#X connect 29 0 28 0;
#X connect 30 0 1 0;
#X connect 30 0 1 1;
#X connect 31 0 39 0;
#X connect 31 0 40 0;
#X connect 33 0 34 0;
#X connect 34 0 35 0;
#X connect 35 0 7 0;
#X connect 35 0 36 1;
#X connect 36 0 25 0;
#X connect 37 0 38 0;
#X connect 39 0 30 1;
#X connect 40 0 30 1;
#X connect 41 0 33 0;
