#N canvas 494 524 754 597 10;
#X floatatom 593 99 5 0 0 0 - - -;
#X obj 638 49 keyname;
#X obj 597 149 * 127;
#X floatatom 597 179 5 0 0 0 - - -;
#X obj 268 46 key;
#X floatatom 291 116 5 0 0 0 - - -;
#X msg 215 273 69;
#X msg 235 274 70;
#X msg 251 274 71;
#X msg 270 274 72;
#X msg 289 274 73;
#X msg 306 274 74;
#X msg 325 275 75;
#X msg 341 275 76;
#X msg 358 274 77;
#X msg 376 274 78;
#X msg 394 273 79;
#X msg 420 274 80;
#X msg 438 274 81;
#X msg 457 274 82;
#X msg 476 274 83;
#X msg 493 274 84;
#X msg 511 275 85;
#X msg 530 274 86;
#X floatatom 333 332 5 0 0 0 - - -;
#X obj 331 54 keyup;
#X obj 301 379 outlet;
#X obj 579 388 outlet;
#X obj 351 440 mtof;
#X obj 373 479 osc~;
#X obj 288 587 dac~;
#X obj 431 435 * 0.005;
#X obj 405 522 *~;
#X obj 208 206 route 113 50 119 51 101 114 53 116 54 121 117 56 105
57 111 48 112 229;
#X connect 0 0 2 0;
#X connect 1 0 0 0;
#X connect 2 0 3 0;
#X connect 3 0 27 0;
#X connect 3 0 31 0;
#X connect 4 0 5 0;
#X connect 5 0 33 0;
#X connect 6 0 24 0;
#X connect 7 0 24 0;
#X connect 8 0 24 0;
#X connect 9 0 24 0;
#X connect 10 0 24 0;
#X connect 11 0 24 0;
#X connect 12 0 24 0;
#X connect 13 0 24 0;
#X connect 14 0 24 0;
#X connect 15 0 24 0;
#X connect 16 0 24 0;
#X connect 17 0 24 0;
#X connect 18 0 24 0;
#X connect 19 0 24 0;
#X connect 20 0 24 0;
#X connect 21 0 24 0;
#X connect 22 0 24 0;
#X connect 23 0 24 0;
#X connect 24 0 26 0;
#X connect 24 0 28 0;
#X connect 25 0 5 0;
#X connect 28 0 29 0;
#X connect 29 0 32 0;
#X connect 31 0 32 1;
#X connect 33 0 6 0;
#X connect 33 1 7 0;
#X connect 33 2 8 0;
#X connect 33 3 9 0;
#X connect 33 4 10 0;
#X connect 33 5 11 0;
#X connect 33 6 12 0;
#X connect 33 7 13 0;
#X connect 33 8 14 0;
#X connect 33 9 15 0;
#X connect 33 10 16 0;
#X connect 33 11 17 0;
#X connect 33 12 18 0;
#X connect 33 13 19 0;
#X connect 33 14 20 0;
#X connect 33 15 21 0;
#X connect 33 16 22 0;
#X connect 33 17 23 0;
