#N canvas 527 50 775 506 10;
#N canvas 1178 64 726 720 storepitch 0;
#X obj 59 15 inlet~;
#X floatatom 60 249 5 0 0 0 - - -;
#X floatatom 132 249 5 0 0 0 - - -;
#X obj 59 196 fiddle~ 2048;
#X floatatom 63 357 5 0 0 0 - - -;
#X obj 61 291 expr if($f1 > 30 && $f1 < 108 \, $f1 \, 0) \;;
#X obj 362 137 tgl 15 0 empty empty empty 17 7 0 10 -262144 -1 -1 0
32.6652;
#X obj 59 156 *~;
#X obj 202 421 float;
#X obj 415 343 bng 15 250 50 0 empty empty empty 17 7 0 10 -262144
-1 -1;
#X obj 61 317 mavg 10;
#X obj 321 511 outlet;
#X obj 490 39 inlet;
#X obj 288 446 + 0.5;
#X obj 321 476 int;
#X obj 397 117 delay 500;
#X msg 360 92 bang;
#X msg 491 82 bang;
#N canvas 340 160 450 300 bang_on_sound 0;
#X obj 169 51 inlet~;
#X obj 171 180 outlet;
#X obj 168 79 env~;
#X obj 168 145 sel 1;
#X obj 168 122 change;
#X obj 168 101 > 0;
#X connect 0 0 2 0;
#X connect 2 0 5 0;
#X connect 3 0 1 0;
#X connect 4 0 3 0;
#X connect 5 0 4 0;
#X restore 124 31 pd bang_on_sound;
#X text 301 24 When bang is received: start detecting pitch (this could
be an inlet instead);
#X text 129 -2 when detecting sound send bang;
#X obj 488 147 s data;
#X obj 350 415 r data;
#X obj 378 509 outlet;
#X obj 377 458 float;
#X obj 462 530 print;
#X obj 461 475 prepend Din innspelning exakt pitch:;
#X obj 449 493 prepend Din innspelning avrundad pitch:;
#X connect 0 0 7 0;
#X connect 0 0 18 0;
#X connect 1 0 5 0;
#X connect 3 2 1 0;
#X connect 3 3 2 0;
#X connect 4 0 8 1;
#X connect 5 0 10 0;
#X connect 6 0 7 1;
#X connect 7 0 3 0;
#X connect 8 0 13 0;
#X connect 8 0 24 0;
#X connect 9 0 8 0;
#X connect 10 0 4 0;
#X connect 12 0 17 0;
#X connect 13 0 14 0;
#X connect 14 0 11 0;
#X connect 14 0 27 0;
#X connect 15 0 6 0;
#X connect 15 0 9 0;
#X connect 16 0 15 0;
#X connect 16 0 6 0;
#X connect 17 0 21 0;
#X connect 18 0 16 0;
#X connect 22 0 14 0;
#X connect 22 0 24 0;
#X connect 24 0 23 0;
#X connect 24 0 26 0;
#X connect 26 0 25 0;
#X connect 27 0 25 0;
#X restore 66 -51 pd storepitch;
#X obj -15 -125 pr_record;
#X msg 141 -77 output pitch;
#X floatatom 66 -26 5 0 0 0 - - -;
#X obj -15 -68 pr_play~;
#X obj 487 35 pack f f f;
#X floatatom 564 -4 5 0 0 0 - - -;
#X floatatom 564 16 5 0 0 0 - - -;
#X floatatom 564 36 5 0 0 0 - - -;
#X text 595 -5 voice number;
#X text 597 15 note number;
#X text 596 35 velocity;
#X obj 490 -21 poly 10 1;
#X obj 487 64 route 1 2 3 4 5 6 7 8 9 10;
#X obj 303 -143 pack f f;
#X obj 491 -69 notein;
#X obj -15 -269 bng 50 250 50 0 empty empty Spela_in 0 -7 0 10 -262144
-1 -1;
#X obj 304 -265 hradio 30 1 0 3 empty empty empty 0 -8 0 10 -262144
-1 -1 0;
#N canvas 603 395 1204 368 creator 0;
#X obj 404 15 until;
#X obj 492 45 + 1;
#X obj 404 41 f;
#X msg 450 -2 0;
#X msg 187 105 clear;
#X obj 259 22 bng 15 250 50 0 empty empty empty 17 7 0 10 -262144 -1
-1;
#X msg 404 -22 72;
#X obj 394 66 - 48;
#N canvas 664 69 1222 300 field 0;
#X restore 72 108 pd field;
#X obj 258 252 s pd-field;
#X obj 2 5 inlet;
#X msg 27 171 find hej -1 \, cut;
#X msg 248 136 obj \$1 0 hej \$2;
#X obj 152 -9 inlet;
#X obj 321 323 print;
#X obj 212 267 del 10;
#X obj 368 268 del 10;
#X msg 368 291 Creator field borttagen;
#X obj 98 260 bng 15 250 50 0 empty empty empty 17 7 0 10 -262144 -1
-1;
#X obj 368 243 bng 15 250 50 0 empty empty empty 17 7 0 10 -262144
-1 -1;
#X msg 212 290 Creator field skapad;
#X obj 97 320 outlet;
#X msg 80 292 1;
#X msg 116 294 0;
#X text 56 90 Här är skapfältet;
#X obj 286 49 * -100;
#X obj 282 93 pack 0 0;
#X obj 867 13 until;
#X obj 867 39 f;
#X obj 830 98 pack 0 0;
#X msg 836 143 connect \$1 0 \$2 0;
#X obj 954 43 - 1;
#X floatatom 918 93 5 0 0 0 - - -;
#X msg 914 -3 143;
#X msg 878 -16 143;
#X obj 358 100 pack 0 0;
#X obj 659 57 inlet;
#X text 695 51 namechooser;
#X obj 686 75 == 1;
#X obj 250 194 spigot;
#X obj 324 196 spigot;
#X obj 388 197 spigot;
#X obj 740 75 == 2;
#X obj 610 80 == 0;
#X text 963 -6 Grej för att skapa trådar (används ej);
#X msg 502 137 obj \$1 30 hej_pshift \$2;
#X msg 119 224 find hej_pshift -1 \, cut;
#X obj 492 102 pack 0 0;
#X obj 605 173 r rakna;
#X obj 605 207 counter;
#X floatatom 605 232 5 0 0 0 - - -;
#X obj 605 255 == 71;
#X obj 605 301 bng 15 250 50 0 empty empty empty 17 7 0 10 -262144
-1 -1;
#X obj 605 278 sel 1;
#X obj 526 241 del 1000;
#X msg 686 260 Alla ljudfiler med SOLA-algoritmen skapade;
#X msg 718 309 Alla ljudfiler med Pitch-algoritmen skapade;
#X obj 672 238 spigot;
#X obj 717 237 spigot;
#X obj 761 238 spigot;
#X obj 659 316 print;
#X obj 359 -22 del 5;
#X obj 2 54 del 10;
#X msg 88 200 find fft-hej -1 \, cut;
#X msg 697 285 Alla ljudfiler med FFT-algoritmen skapade;
#X msg 356 137 obj \$1 30 fft-hej \$2;
#X connect 0 0 2 0;
#X connect 1 0 2 1;
#X connect 2 0 1 0;
#X connect 2 0 7 0;
#X connect 2 0 25 0;
#X connect 3 0 2 0;
#X connect 4 0 19 0;
#X connect 4 0 9 0;
#X connect 5 0 3 0;
#X connect 5 0 4 0;
#X connect 5 0 49 3;
#X connect 5 0 61 0;
#X connect 6 0 0 0;
#X connect 7 0 26 1;
#X connect 7 0 35 1;
#X connect 7 0 47 1;
#X connect 10 0 5 0;
#X connect 10 0 62 0;
#X connect 11 0 39 0;
#X connect 11 0 18 0;
#X connect 12 0 39 0;
#X connect 13 0 4 0;
#X connect 15 0 20 0;
#X connect 15 0 22 0;
#X connect 16 0 17 0;
#X connect 16 0 23 0;
#X connect 17 0 14 0;
#X connect 18 0 15 0;
#X connect 19 0 16 0;
#X connect 20 0 14 0;
#X connect 22 0 21 0;
#X connect 23 0 21 0;
#X connect 25 0 26 0;
#X connect 25 0 35 0;
#X connect 25 0 47 0;
#X connect 26 0 12 0;
#X connect 27 0 28 0;
#X connect 28 0 31 0;
#X connect 28 0 32 0;
#X connect 28 0 29 0;
#X connect 28 0 29 1;
#X connect 29 0 30 0;
#X connect 31 0 28 1;
#X connect 33 0 28 0;
#X connect 34 0 27 0;
#X connect 35 0 65 0;
#X connect 36 0 38 0;
#X connect 36 0 42 0;
#X connect 36 0 43 0;
#X connect 38 0 40 1;
#X connect 38 0 58 1;
#X connect 39 0 9 0;
#X connect 40 0 9 0;
#X connect 41 0 9 0;
#X connect 42 0 41 1;
#X connect 42 0 59 1;
#X connect 43 0 39 1;
#X connect 43 0 57 1;
#X connect 45 0 41 0;
#X connect 46 0 18 0;
#X connect 46 0 41 0;
#X connect 47 0 45 0;
#X connect 48 0 49 0;
#X connect 49 0 50 0;
#X connect 50 0 51 0;
#X connect 51 0 53 0;
#X connect 52 0 54 0;
#X connect 52 0 57 0;
#X connect 52 0 58 0;
#X connect 52 0 59 0;
#X connect 53 0 52 0;
#X connect 54 0 4 0;
#X connect 55 0 60 0;
#X connect 56 0 60 0;
#X connect 57 0 55 0;
#X connect 58 0 64 0;
#X connect 59 0 56 0;
#X connect 61 0 6 0;
#X connect 62 0 11 0;
#X connect 62 0 63 0;
#X connect 62 0 46 0;
#X connect 63 0 40 0;
#X connect 63 0 18 0;
#X connect 64 0 60 0;
#X connect 65 0 40 0;
#X restore 93 -235 pd creator;
#X obj 90 -272 bng 30 250 50 0 empty empty Skapa 0 -5 0 10 -4034 -1
-1;
#X obj 130 -272 bng 30 250 50 0 empty empty Ta_bort -3 -5 0 10 -258113
-1 -1;
#X text 300 -165 Icke Poly;
#X text 306 -282 SOLA;
#X text 338 -281 TFT;
#X obj 93 -211 tgl 30 0 empty empty Field_is_on/off 30 15 0 10 -228856
-1 -1 0 1;
#X obj 51 -198 tgl 18 0 THIS_IS_HERE_TO_GET_RID_OF_THE_OUTLET \$0-dsp-toggle
dsp 2 9 1 9 -225271 -195568 -33289 1 1;
#N canvas 366 514 482 356 dsp 0;
#X obj 11 7 inlet;
#X obj 92 226 select 0 1;
#X msg 125 248 6;
#X obj 92 57 route dsp;
#X obj 92 36 receive pd;
#X obj 206 138 loadbang;
#X msg 11 220 dsp \$1;
#X obj 11 245 send pd;
#X msg 206 278 set \$1;
#X obj 206 174 value GLOBAL_PDDP_DSP;
#X msg 109 278 color \$1 20 12;
#X obj 180 309 send \$0-dsp-toggle;
#X obj 92 115 change;
#X msg 92 247 0;
#X connect 0 0 6 0;
#X connect 0 0 12 0;
#X connect 1 0 13 0;
#X connect 1 1 2 0;
#X connect 2 0 10 0;
#X connect 3 0 12 0;
#X connect 4 0 3 0;
#X connect 5 0 9 0;
#X connect 6 0 7 0;
#X connect 8 0 11 0;
#X connect 9 0 8 0;
#X connect 9 0 1 0;
#X connect 10 0 11 0;
#X connect 12 0 8 0;
#X connect 12 0 1 0;
#X connect 12 0 9 0;
#X connect 13 0 10 0;
#X restore 51 -173 pd dsp logic;
#X obj -15 -194 del 1;
#X msg 51 -219 1;
#X obj 171 -272 bng 30 250 50 0 empty empty Pitcha -3 -5 0 10 -4032
-1 -1;
#X obj 215 -285 bng 50 250 50 0 empty empty Skapa_o_Pitcha -3 -5 0
10 -83269 -1 -1;
#X text 365 -281 Pitch;
#X obj 304 -304 loadbang;
#X text 549 -23 Polyfoniskt;
#X obj 26 20 vsl 40 60 0.01 1000 1 1 empty empty Attack 0 -9 0 10 -262144
-1 -1 1700 1;
#X obj 152 20 vsl 40 60 1 500 1 1 empty empty Release 0 -9 0 10 -262144
-1 -1 3100 1;
#X obj 110 20 vsl 40 60 0 2 0 1 empty empty Sustain 0 -9 0 10 -262144
-1 -1 4500 1;
#X obj 68 20 vsl 40 60 0.01 1 1 1 empty empty Decay 0 -9 0 10 -262144
-1 -1 1600 1;
#X floatatom 26 93 5 0 0 0 - - -;
#X floatatom 152 93 5 0 0 0 - - -;
#X obj -16 20 vsl 40 60 6000 8000 1 1 empty empty Volym 0 -9 0 10 -262144
-1 -1 5900 1;
#X floatatom -16 92 5 0 0 0 - - -;
#X floatatom 110 93 5 0 0 0 - - -;
#X floatatom 68 93 5 0 0 0 - - -;
#X obj 152 115 s release0;
#X obj -16 114 s volume0;
#X obj 68 115 s decay0;
#X obj 110 140 s sustain0;
#X obj 26 139 s attack0;
#X obj 487 118 playnote;
#X obj 304 -226 s algo;
#X obj -15 -104 bng 15 250 50 0 empty empty empty 17 7 0 10 -262144
-1 -1;
#X text -67 -93 Spelar upp filen foo.wav (1 för DSP \; 0 för inget
DSP);
#X text -47 -152 Spelar in 1000 MS \, och sparar foo.wav;
#X text 151 -52 storepitch avgör pitch på inspelningen;
#N canvas 1139 35 705 325 grejer 0;
#X obj 307 10 inlet;
#X obj 552 9 inlet;
#X text 596 8 skapa o pitcha;
#X obj 218 9 inlet;
#X text 257 9 field;
#X obj 217 34 tgl 15 0 empty empty empty 17 7 0 10 -262144 -1 -1 0
1;
#X obj 131 121 bng 15 250 50 0 empty empty empty 17 7 0 10 -262144
-1 -1;
#X floatatom 163 151 5 0 0 0 - - -;
#X obj 169 233 == 0;
#X obj 136 254 spigot;
#X obj 136 295 print;
#X msg 136 275 Ljuden pitchades EJ - skapa en creator först;
#X msg 166 79 1;
#X obj 106 176 spigot;
#X obj 96 200 del 100;
#X obj 105 153 del 10;
#X msg 235 86 0;
#X obj 115 85 spigot;
#X floatatom 170 119 5 0 0 0 - - -;
#X obj 104 126 bng 15 250 50 0 empty empty empty 17 7 0 10 -262144
-1 -1;
#X obj 465 9 inlet;
#X text 503 9 pitcha;
#X obj 362 192 outlet;
#X obj 47 296 s grund_pitch;
#X obj 47 276 spigot;
#X floatatom 47 255 5 0 0 0 - - -;
#X obj 47 10 inlet;
#X text 91 8 storepitch sckikar;
#X text 344 9 skapa elr ta bort;
#X connect 0 0 16 0;
#X connect 1 0 12 0;
#X connect 3 0 5 0;
#X connect 5 0 6 0;
#X connect 5 0 7 0;
#X connect 6 0 17 0;
#X connect 7 0 8 0;
#X connect 7 0 13 1;
#X connect 7 0 24 1;
#X connect 8 0 9 1;
#X connect 9 0 11 0;
#X connect 11 0 10 0;
#X connect 12 0 18 0;
#X connect 13 0 14 0;
#X connect 14 0 22 0;
#X connect 15 0 13 0;
#X connect 16 0 18 0;
#X connect 17 0 19 0;
#X connect 18 0 17 1;
#X connect 19 0 15 0;
#X connect 20 0 7 0;
#X connect 20 0 22 0;
#X connect 24 0 23 0;
#X connect 25 0 24 0;
#X connect 25 0 9 0;
#X connect 26 0 25 0;
#X restore 141 -130 pd grejer;
#X obj 141 -103 bng 15 250 50 0 empty empty empty 17 7 0 10 -262144
-1 -1;
#X floatatom 141 -28 5 0 0 0 - - -;
#X msg -15 -170 3000 foo;
#X obj 405 -305 cnv 15 300 160 empty empty Midi_spelare 20 12 0 14
-261682 -66577 0;
#X obj 407 -282 bng 30 250 50 0 empty empty Play 35 15 0 15 -203904
-1 -1;
#X obj 549 -215 seq;
#X msg 510 -252 bang;
#X msg 507 -219 stop;
#X msg 530 -186 pause;
#X msg 576 -252 read mz_331_3.mid;
#X msg 587 -227 read bach_846.mid;
#X msg 549 -276 read mond_3.mid;
#X obj 407 -249 bng 30 250 50 0 empty empty Stop 35 15 0 15 -203904
-1 -1;
#X obj 407 -216 bng 30 250 50 0 empty empty Pause 35 15 0 15 -203904
-1 -1;
#X obj 407 -183 bng 30 250 50 0 empty empty Notes_Off 35 15 0 15 -203904
-1 -1;
#X obj 549 -137 midiparse;
#X obj 549 -114 unpack f f;
#X msg 407 -38 0;
#X obj 407 -64 f;
#X obj 437 -64 + 1;
#X obj 407 -88 until;
#X obj 407 -114 t f b;
#X msg 407 -135 127;
#X msg 446 -89 1;
#X obj 303 -117 playnote;
#X obj 624 101 playnote;
#X obj 517 159 playnote;
#X obj 548 119 playnote;
#X obj 578 159 playnote;
#X obj 609 120 playnote;
#X obj 502 99 playnote;
#X obj 533 138 playnote;
#X obj 563 100 playnote;
#X obj 594 139 playnote;
#X text 32 -8 tid;
#X text -15 -8 nivå;
#X text 71 -8 tid;
#X text 156 -9 tid;
#X text 113 -9 nivå;
#X text -38 -296 Tryck här först;
#X msg 583 -201 read mrsandman2.mid;
#X connect 0 0 3 0;
#X connect 0 1 55 0;
#X connect 0 1 57 0;
#X connect 1 0 51 0;
#X connect 2 0 0 1;
#X connect 4 0 0 0;
#X connect 5 0 13 0;
#X connect 12 0 6 0;
#X connect 12 0 5 0;
#X connect 12 1 7 0;
#X connect 12 1 5 1;
#X connect 12 2 8 0;
#X connect 12 2 5 2;
#X connect 13 0 49 0;
#X connect 13 1 86 0;
#X connect 13 2 82 0;
#X connect 13 3 87 0;
#X connect 13 4 83 0;
#X connect 13 5 88 0;
#X connect 13 6 84 0;
#X connect 13 7 89 0;
#X connect 13 8 85 0;
#X connect 13 9 81 0;
#X connect 14 0 80 0;
#X connect 15 0 12 0;
#X connect 15 1 12 1;
#X connect 16 0 27 0;
#X connect 16 0 28 0;
#X connect 17 0 18 2;
#X connect 17 0 50 0;
#X connect 18 0 24 0;
#X connect 19 0 18 0;
#X connect 19 0 55 2;
#X connect 20 0 18 1;
#X connect 20 0 55 2;
#X connect 24 0 55 1;
#X connect 25 0 26 0;
#X connect 27 0 58 0;
#X connect 28 0 25 0;
#X connect 29 0 55 3;
#X connect 30 0 18 0;
#X connect 30 0 55 4;
#X connect 32 0 17 0;
#X connect 34 0 38 0;
#X connect 35 0 39 0;
#X connect 36 0 42 0;
#X connect 37 0 43 0;
#X connect 38 0 48 0;
#X connect 39 0 44 0;
#X connect 40 0 41 0;
#X connect 41 0 45 0;
#X connect 42 0 47 0;
#X connect 43 0 46 0;
#X connect 51 0 4 0;
#X connect 55 0 56 0;
#X connect 56 0 2 0;
#X connect 58 0 1 0;
#X connect 60 0 62 0;
#X connect 61 0 71 0;
#X connect 62 0 61 0;
#X connect 63 0 61 0;
#X connect 64 0 61 0;
#X connect 65 0 61 0;
#X connect 66 0 61 0;
#X connect 67 0 61 0;
#X connect 68 0 63 0;
#X connect 68 0 70 0;
#X connect 69 0 64 0;
#X connect 69 0 70 0;
#X connect 70 0 78 0;
#X connect 71 0 72 0;
#X connect 72 0 12 0;
#X connect 72 1 12 1;
#X connect 73 0 12 1;
#X connect 74 0 73 0;
#X connect 74 0 75 0;
#X connect 74 0 12 0;
#X connect 75 0 74 1;
#X connect 76 0 74 0;
#X connect 77 0 76 0;
#X connect 77 1 79 0;
#X connect 78 0 77 0;
#X connect 79 0 74 1;
#X connect 96 0 61 0;
