#N canvas 63 273 896 389 10;
#X floatatom 314 65 5 0 0 0 - transpo-set -;
#X text 307 25 detune;
#X obj 118 124 readsf~;
#X obj 118 32 bng 15 250 50 0 empty empty empty 0 -6 0 8 -262144 -1
-1;
#X obj 118 51 openpanel;
#X msg 118 95 open \$1;
#X obj 118 72 symbol;
#X obj 195 66 t b b;
#X msg 196 89 1;
#X obj 28 291 dac~;
#X obj 28 268 *~;
#X obj 44 249 hsl 128 15 0 1 0 0 empty empty empty -2 -6 0 8 -262144
-1 -1 12700 1;
#X msg 218 35 0;
#X obj 181 33 bng 15 250 50 0 empty empty empty 0 -6 0 8 -262144 -1
-1;
#X text 102 14 load file;
#X text 171 14 start;
#X text 218 16 stop;
#X obj 29 43 adc~ 1;
#X obj 30 93 *~;
#X obj 43 73 tgl 15 0 empty empty empty 0 -6 0 8 -262144 -1 -1 0 1
;
#X text 17 21 live-input;
#X obj 29 204 fft-pitchshifter;
#X obj 367 180 pow 2;
#X obj 367 120 hradio 15 1 0 8 empty empty empty 0 -8 0 10 -261234
-1 -1 5;
#X msg 367 160 2;
#X obj 367 139 t b f;
#X obj 366 202 * 128;
#X floatatom 379 230 5 0 0 0 - - -;
#X text 494 120 <- try different window sizes for the pitch shifter
\, if you want. Default is 2048 \, which works pretty well. A range
of 1024 to 4096 seems best but that may vary by cpu speed.;
#X text 310 43 in cents (50 is a half step);
#X text 406 43;
#X connect 0 0 21 1;
#X connect 2 0 21 0;
#X connect 2 1 7 0;
#X connect 3 0 4 0;
#X connect 4 0 6 0;
#X connect 5 0 2 0;
#X connect 6 0 5 0;
#X connect 7 0 8 0;
#X connect 7 1 6 0;
#X connect 8 0 2 0;
#X connect 10 0 9 0;
#X connect 10 0 9 1;
#X connect 11 0 10 1;
#X connect 12 0 2 0;
#X connect 13 0 7 0;
#X connect 13 0 23 0;
#X connect 17 0 18 0;
#X connect 18 0 21 0;
#X connect 19 0 18 1;
#X connect 21 0 10 0;
#X connect 22 0 26 0;
#X connect 23 0 25 0;
#X connect 24 0 22 0;
#X connect 25 0 24 0;
#X connect 25 1 22 1;
#X connect 26 0 21 2;
#X connect 26 0 27 0;
