#N canvas 750 60 1121 460 10;
#X obj -471 -148 inlet;
#X obj -781 135 dac~;
#X obj -773 49 readsf~;
#X obj -657 64 print;
#X obj -583 134 bng 15 250 50 0 empty empty empty 17 7 0 10 -204786
-1 -1;
#X msg -626 132 stop;
#X text -582 -146 namechooser;
#X obj -590 -103 == 1;
#X obj -669 -79 spigot;
#X obj -623 -80 spigot;
#X obj -579 -81 spigot;
#X obj -546 -103 == 2;
#X obj -636 -102 == 0;
#X obj -579 -7 makefilename pitch%d;
#X obj -669 -54 makefilename sola%d;
#X obj -622 -30 makefilename fft%d;
#X obj -363 -152 cnv 15 170 455 empty empty Velocity/Timer 20 12 0
14 -4034 -66577 0;
#X obj -309 -67 sel 0;
#X obj -282 -46 bng 15 250 50 0 empty empty empty 17 7 0 10 -204786
-1 -1;
#X obj -309 -47 bng 15 250 50 0 empty empty empty 17 7 0 10 -204786
-1 -1;
#X floatatom -309 -87 5 0 0 0 - - -;
#X floatatom -354 -86 5 0 0 0 - - -;
#X obj 164 3 cnv 15 170 150 empty empty Decay 20 12 0 14 -261682 -66577
0;
#X floatatom 165 133 5 0 0 0 - - -;
#X obj 165 113 * \$1;
#X obj 165 92 * 20;
#X floatatom 186 48 5 0 0 0 - - -;
#X obj -12 158 cnv 15 170 145 empty empty Attack_Time 20 12 0 14 -162280
-66577 0;
#X obj -9 241 expr (($f1)/-127)+1;
#X obj -9 261 * \$1;
#X floatatom 12 201 5 0 0 0 - - -;
#X floatatom -9 285 5 0 0 0 - - -;
#X obj -12 3 cnv 15 170 150 empty empty Release 20 12 0 14 -228856
-66577 0;
#X floatatom -7 136 5 0 0 0 - - -;
#X obj -7 115 * \$1;
#X obj -7 92 / 12.7;
#X floatatom 14 49 5 0 0 0 - - -;
#X text 239 7 är % av;
#X text 239 20 velocity *20;
#X obj 13 27 r release0;
#X obj 184 27 r decay0;
#X obj 12 180 r attack0;
#X obj 32 135 s \$0-rel;
#X obj 203 133 s \$0-dec;
#X obj 27 284 s \$0-att_time;
#X obj -7 69 r \$0-vel;
#X obj 165 71 r \$0-vel;
#X obj -9 219 r \$0-vel;
#X obj -188 -152 cnv 15 522 150 empty empty Volym-ramper 20 12 0 14
-257985 -1 0;
#X obj 28 -21 vline~;
#X obj -32 -77 pack 0 0;
#X text -24 -64 attack;
#X text 43 -64 decay & sustain;
#X msg 28 -49 \$1 \$2 \$3;
#X obj 163 -101 f;
#X msg -80 -49 0 \$1;
#X msg 163 -49 \$1 \$2 \, 0 \$3 \$2;
#X obj 163 -76 pack f f f;
#X msg -80 -26 stop;
#X text -160 -57 release för;
#X text -158 -44 långa toner;
#X msg -32 -49 \$1 \$2;
#X text 254 -53 korta toner;
#X text 189 -65 sustain & release för;
#X obj 164 158 cnv 15 170 145 empty empty Sustain 20 12 0 14 -232576
-66577 0;
#X floatatom 166 283 5 0 0 0 - - -;
#X obj 166 261 * \$1;
#X floatatom 187 221 5 0 0 0 - - -;
#X text 245 160 är % av;
#X text 223 173 attack_peak;
#X obj 187 198 r sustain0;
#X obj -187 3 cnv 15 170 300 empty empty Volume/Attack_peak 20 12 0
14 -4032 -66577 0;
#X obj -185 261 / 8;
#X obj -185 239 pow 2;
#X obj -185 217 * 10;
#X obj -185 195 / \$1;
#X obj -164 130 * 100;
#X obj -164 108 + 51;
#X obj -164 86 * -0.5;
#X obj -164 65 sqrt;
#X floatatom -164 44 5 0 0 0 - - -;
#X floatatom -164 154 5 0 0 0 - - -;
#X floatatom -185 283 5 0 0 0 - - -;
#X obj -164 23 r volume0;
#X obj -263 -68 s \$0-vel;
#X obj -185 173 r \$0-vel;
#X obj -65 -151 r \$0-rel;
#X obj 227 -151 r \$0-rel;
#X obj 56 -100 r \$0-dec;
#X obj 85 -125 r \$0-att_time;
#X obj -305 21 timer;
#X floatatom -262 23 5 0 0 0 - - -;
#X obj -305 105 expr $f2-$f1;
#X floatatom -342 140 5 0 0 0 - - -;
#X obj -343 105 +;
#X obj -278 166 min;
#X obj -305 140 t f f;
#X obj -305 214 >= 0;
#X floatatom -278 189 5 0 0 0 - - -;
#X obj -305 238 sel 0 1;
#X obj -305 264 bng 15 250 50 0 empty empty empty 17 7 0 10 -204786
-1 -1;
#X obj -264 263 bng 15 250 50 0 empty empty empty 17 7 0 10 -204786
-1 -1;
#X obj -343 46 r \$0-att_time;
#X obj -328 73 r \$0-dec;
#X obj -263 140 r \$0-dec;
#X obj -80 -100 f;
#X floatatom -345 214 5 0 0 0 - - -;
#X obj 28 -76 pack f f f;
#X obj -22 -125 del 0.1;
#X obj -774 108 *~;
#X obj -734 -10 bng 15 250 50 0 empty empty empty 17 7 0 10 -262144
-1 -1;
#X obj -657 5 list;
#X msg -657 32 open \$1.wav \, 1;
#X obj -544 229 del \$1;
#X floatatom -490 190 5 0 0 0 - - -;
#X obj -490 166 +;
#X obj -675 261 del \$1;
#X obj -490 213 > 0;
#X floatatom -490 235 5 0 0 0 - - -;
#X obj -532 267 spigot;
#X obj -675 286 bng 15 250 50 0 empty empty empty 17 7 0 10 -262144
-1 -1;
#X obj -529 288 bng 15 250 50 0 empty empty empty 17 7 0 10 -262144
-1 -1;
#X obj -675 215 del 1;
#X text -231 266 kort;
#X text -341 263 lång;
#X text -435 -149 midi signal;
#X obj -354 -123 unpack f f;
#X obj -475 146 r \$0-rel;
#X obj -642 234 f;
#X obj -627 205 r \$0-rel;
#X text -768 20 loopar;
#X obj -734 -37 r \$0-vel;
#X obj 88 -16 s~ \$0-vline~;
#X obj -754 83 r~ \$0-vline~;
#X obj -342 284 s \$0-bang_0;
#X obj -264 285 s \$0-bang_1;
#X obj -101 -129 r \$0-bang_0;
#X obj -282 -6 s \$0-bang_key;
#X obj -309 -28 s \$0-bang_off;
#X obj 8 -150 r \$0-bang_key;
#X obj 142 -151 r \$0-bang_1;
#X obj -272 214 s \$0-timer;
#X obj 191 -101 r \$0-timer;
#X obj 27 -125 r \$0-sus;
#X obj 178 -123 r \$0-sus;
#X obj 204 283 s \$0-sus;
#X obj -642 180 r \$0-bang_0;
#X obj -561 193 r \$0-bang_1;
#X obj -490 127 r \$0-timer;
#X obj -145 283 s \$0-attack_peak;
#X obj -50 -101 r \$0-attack_peak;
#X obj 166 240 r \$0-attack_peak;
#X obj -625 -146 r algo;
#X text -467 162 för att stänga av;
#X text -469 173 på korta tryckningar;
#X text -753 182 för att stänga av;
#X text -764 196 på långa tryckningar;
#X text -629 114 Stänger av loop;
#X text -752 66 Volym ramp;
#X text -784 32 Spelar samma fil igen;
#X connect 0 0 8 0;
#X connect 0 0 9 0;
#X connect 0 0 10 0;
#X connect 0 0 126 0;
#X connect 2 0 109 0;
#X connect 2 1 110 0;
#X connect 4 0 5 0;
#X connect 5 0 2 0;
#X connect 7 0 9 1;
#X connect 8 0 14 0;
#X connect 9 0 15 0;
#X connect 10 0 13 0;
#X connect 11 0 10 1;
#X connect 12 0 8 1;
#X connect 13 0 111 1;
#X connect 14 0 111 1;
#X connect 15 0 111 1;
#X connect 17 0 19 0;
#X connect 17 1 18 0;
#X connect 17 1 84 0;
#X connect 18 0 90 0;
#X connect 18 0 137 0;
#X connect 19 0 90 1;
#X connect 19 0 138 0;
#X connect 20 0 17 0;
#X connect 23 0 43 0;
#X connect 24 0 23 0;
#X connect 25 0 24 0;
#X connect 26 0 24 1;
#X connect 28 0 29 0;
#X connect 29 0 31 0;
#X connect 30 0 29 1;
#X connect 31 0 44 0;
#X connect 33 0 42 0;
#X connect 34 0 33 0;
#X connect 35 0 34 0;
#X connect 36 0 34 1;
#X connect 39 0 36 0;
#X connect 40 0 26 0;
#X connect 41 0 30 0;
#X connect 45 0 35 0;
#X connect 46 0 25 0;
#X connect 47 0 28 0;
#X connect 49 0 132 0;
#X connect 50 0 61 0;
#X connect 53 0 49 0;
#X connect 54 0 57 0;
#X connect 55 0 49 0;
#X connect 56 0 49 0;
#X connect 57 0 56 0;
#X connect 58 0 49 0;
#X connect 61 0 49 0;
#X connect 65 0 145 0;
#X connect 66 0 65 0;
#X connect 67 0 66 1;
#X connect 70 0 67 0;
#X connect 72 0 82 0;
#X connect 73 0 72 0;
#X connect 74 0 73 0;
#X connect 75 0 74 0;
#X connect 76 0 81 0;
#X connect 77 0 76 0;
#X connect 78 0 77 0;
#X connect 79 0 78 0;
#X connect 80 0 79 0;
#X connect 81 0 75 1;
#X connect 82 0 149 0;
#X connect 83 0 80 0;
#X connect 85 0 75 0;
#X connect 86 0 105 1;
#X connect 87 0 57 2;
#X connect 88 0 107 1;
#X connect 89 0 50 1;
#X connect 89 0 107 2;
#X connect 90 0 91 0;
#X connect 90 0 92 0;
#X connect 92 0 93 0;
#X connect 92 0 96 0;
#X connect 94 0 92 1;
#X connect 95 0 98 0;
#X connect 96 0 97 0;
#X connect 96 0 106 0;
#X connect 96 1 95 0;
#X connect 97 0 99 0;
#X connect 98 0 141 0;
#X connect 99 0 100 0;
#X connect 99 1 101 0;
#X connect 100 0 134 0;
#X connect 101 0 135 0;
#X connect 102 0 94 0;
#X connect 103 0 94 1;
#X connect 104 0 95 1;
#X connect 105 0 55 0;
#X connect 107 0 53 0;
#X connect 108 0 107 0;
#X connect 109 0 1 1;
#X connect 109 0 1 0;
#X connect 110 0 111 0;
#X connect 111 0 112 0;
#X connect 112 0 2 0;
#X connect 112 0 3 0;
#X connect 113 0 119 0;
#X connect 114 0 117 0;
#X connect 114 0 113 1;
#X connect 115 0 114 0;
#X connect 116 0 4 0;
#X connect 116 0 120 0;
#X connect 117 0 118 0;
#X connect 118 0 119 1;
#X connect 119 0 4 0;
#X connect 119 0 121 0;
#X connect 122 0 116 0;
#X connect 126 0 21 0;
#X connect 126 1 20 0;
#X connect 127 0 115 1;
#X connect 128 0 116 1;
#X connect 129 0 128 1;
#X connect 131 0 110 0;
#X connect 133 0 109 1;
#X connect 136 0 105 0;
#X connect 139 0 108 0;
#X connect 140 0 54 0;
#X connect 142 0 57 1;
#X connect 143 0 107 0;
#X connect 144 0 54 1;
#X connect 146 0 122 0;
#X connect 146 0 128 0;
#X connect 147 0 113 0;
#X connect 148 0 115 0;
#X connect 150 0 50 0;
#X connect 151 0 66 0;
#X connect 152 0 12 0;
#X connect 152 0 7 0;
#X connect 152 0 11 0;
