#N canvas 1232 82 721 705 10;
#X obj 36 169 adc~;
#X msg 298 220 stop;
#X obj 151 236 writesf~ 2;
#X obj 297 10 inlet;
#X msg 151 146 open \$2.wav \, start;
#X obj 298 177 delay \$1;
#X obj 425 285 print;
#X msg 380 253 done!;
#X obj 251 250 outlet;
#X msg 425 253 audio: \$2 \, length: \$1;
#X obj 341 95 float;
#X msg 341 75 \$1;
#X text 337 37 This is not actually necessary*;
#X text 25 430 *But it enables a list of input arguments to be whatever.
Otherwise the first argument has to be a number.;
#X obj 297 38 list;
#X obj 280 201 bng 15 250 50 0 empty empty empty 17 7 0 10 -262144
-1 -1;
#X connect 0 1 2 0;
#X connect 0 1 2 1;
#X connect 1 0 2 0;
#X connect 1 0 7 0;
#X connect 3 0 14 0;
#X connect 4 0 2 0;
#X connect 5 0 15 0;
#X connect 7 0 6 0;
#X connect 9 0 6 0;
#X connect 10 0 5 0;
#X connect 11 0 10 0;
#X connect 14 0 11 0;
#X connect 14 0 4 0;
#X connect 15 0 1 0;
#X connect 15 0 8 0;
