#N canvas 421 233 770 704 10;
#X floatatom 70 581 5 0 0 0 - - -;
#N canvas 756 239 450 300 pitch_inc_pcnt 0;
#X obj 101 199 outlet;
#X obj 92 6 inlet;
#X text 209 63 This patch takes a number as an input and outputs the
procentage of increase required to reach the "new" pitch.;
#X text 209 136 For example: input 12 gives 2 input 7 gives about 1.5
;
#X obj 123 98 / 12;
#X obj 101 141 pow;
#X msg 63 100 2;
#X connect 1 0 4 0;
#X connect 1 0 6 0;
#X connect 4 0 5 1;
#X connect 5 0 0 0;
#X connect 6 0 5 0;
#X restore 114 583 pd pitch_inc_pcnt;
#X obj 117 618 hsl 200 15 0.25 2 0 1 empty empty pitch-factor 20 8
0 10 -262144 -260097 -1 0 0;
#X floatatom 125 646 5 0 0 0 - - -;
#X obj 33 646 soundtouch~ 40;
#N canvas 0 22 603 635 settings 0;
#X obj 381 289 hsl 200 15 10 100 0 0 empty sequence sequence 20 8 0
10 -262144 -260097 -1 0 0;
#X msg 378 335 sequence \$1;
#X floatatom 386 312 5 0 0 0 - - -;
#X obj 381 373 hsl 200 15 10 100 0 0 empty seekwindow seekwindow 20
8 0 10 -262144 -260097 -1 0 0;
#X floatatom 386 396 5 0 0 0 - - -;
#X obj 379 462 hsl 200 15 5 100 0 0 empty overlap overlap 20 8 0 10
-262144 -260097 -1 0 0;
#X floatatom 384 485 5 0 0 0 - - -;
#X obj 324 540 outlet;
#X msg 378 422 seekwindow \$1;
#X msg 376 509 overlap \$1;
#X msg 43 477 \; sequence 40 \; seekwindow 20 \; overlap 10 \;;
#X obj 39 289 cnv 15 300 150 empty empty empty 20 12 0 14 -233017 -66577
0;
#X obj 52 325 hsl 200 15 10 100 0 0 empty empty set 20 8 0 10 -262144
-260097 -1 0 0;
#X floatatom 57 348 5 0 0 0 - - -;
#X msg 49 371 set \$1;
#X text 113 348 all settings at once in the ratio:;
#X text 52 301 range 10 - 100 milliseconds;
#X text 43 50 - sequence: signal grain size;
#X text 43 76 - seekwindow: margin for finding best overlap match;
#X text 43 102 - overlap: overlap size of grains;
#X text 42 451 [soundtouch~] defaults:;
#X text 39 138 You can experiment with these settings according to
your sound material. For easy of use \, the 'set' selector does all
three settings at once in a fixed ratio \, but they can be set individually
as well. Notice that changing settings in runtime can sometimes cause
disproportionate latency in [soundtouch~] \, which is only undone when
you reload the object. Alternatively \, you can initialize [soundtouch~]
with an optional single argument for sequence size \, from which the
other settings are derived in fixed ratio.;
#X text 42 568 Website of the SoundTouch library:;
#X text 41 593 http://www.surina.net/soundtouch/;
#X text 42 9 In Olli Parviainen's SoundTouch library \, these settings
are user-definable in milliseconds:;
#X text 373 540 to [soundtouch~] left inlet;
#X text 112 369 sequence 1;
#X text 112 390 seekwindow 0.5;
#X text 113 410 overlap 0.25;
#X connect 0 0 1 0;
#X connect 0 0 2 0;
#X connect 1 0 7 0;
#X connect 3 0 8 0;
#X connect 3 0 4 0;
#X connect 5 0 9 0;
#X connect 5 0 6 0;
#X connect 8 0 7 0;
#X connect 9 0 7 0;
#X connect 12 0 14 0;
#X connect 12 0 13 0;
#X connect 14 0 7 0;
#X restore 34 617 pd settings;
#X msg 153 272 stop;
#X obj 153 338 writesf~ 2;
#X obj 246 338 print;
#X obj 34 170 pr_play~;
#N canvas 340 160 450 300 bang_on_sound 0;
#X obj 169 51 inlet~;
#X obj 171 180 outlet;
#X obj 168 79 env~;
#X obj 168 145 sel 1;
#X obj 168 122 change;
#X obj 168 101 > 0;
#X obj 245 179 outlet;
#X obj 247 146 sel 0;
#X connect 0 0 2 0;
#X connect 2 0 5 0;
#X connect 3 0 1 0;
#X connect 4 0 3 0;
#X connect 4 0 7 0;
#X connect 5 0 4 0;
#X connect 7 0 6 0;
#X restore 60 203 pd bang_on_sound;
#X obj 60 229 bng 15 250 50 0 empty empty empty 17 7 0 10 -262144 -1
-1;
#X obj 153 230 bng 15 250 50 0 empty empty empty 17 7 0 10 -262144
-1 -1;
#X msg 200 260 open \$1.wav \, start;
#X msg 34 140 0 foo;
#X obj 34 114 del 2;
#X floatatom 336 83 5 0 0 0 - - -;
#X obj 336 10 r grund_pitch;
#X floatatom 240 197 5 0 0 0 - - -;
#X obj 201 76 bng 15 250 50 0 empty empty empty 17 7 0 10 -262144 -1
-1;
#X msg 317 152 \$1;
#X obj 317 125 \$1;
#X floatatom 403 40 5 0 0 0 - - -;
#X obj 388 99 -;
#X floatatom 388 124 5 0 0 0 - - -;
#X floatatom 430 229 5 0 0 0 - - -;
#X obj 373 169 +;
#X obj 336 61 int;
#X obj 336 39 + 0.5;
#X obj 317 179 +;
#X obj 201 228 f;
#X text 46 592 comment;
#X floatatom 424 597 5 0 0 0 - - -;
#N canvas 756 239 450 300 pitch_inc_pcnt 0;
#X obj 101 199 outlet;
#X obj 92 6 inlet;
#X text 209 63 This patch takes a number as an input and outputs the
procentage of increase required to reach the "new" pitch.;
#X text 209 136 For example: input 12 gives 2 input 7 gives about 1.5
;
#X obj 123 98 / 12;
#X obj 101 141 pow;
#X msg 63 100 2;
#X connect 1 0 4 0;
#X connect 1 0 6 0;
#X connect 4 0 5 1;
#X connect 5 0 0 0;
#X connect 6 0 5 0;
#X restore 468 599 pd pitch_inc_pcnt;
#X obj 471 634 hsl 200 15 0.25 2 0 1 empty empty pitch-factor 20 8
0 10 -262144 -260097 -1 4117 0;
#X floatatom 479 662 5 0 0 0 - - -;
#X obj 387 662 soundtouch~ 40;
#N canvas 0 22 603 635 settings 0;
#X obj 381 289 hsl 200 15 10 100 0 0 empty sequence sequence 20 8 0
10 -262144 -260097 -1 0 0;
#X msg 378 335 sequence \$1;
#X floatatom 386 312 5 0 0 0 - - -;
#X obj 381 373 hsl 200 15 10 100 0 0 empty seekwindow seekwindow 20
8 0 10 -262144 -260097 -1 0 0;
#X floatatom 386 396 5 0 0 0 - - -;
#X obj 379 462 hsl 200 15 5 100 0 0 empty overlap overlap 20 8 0 10
-262144 -260097 -1 0 0;
#X floatatom 384 485 5 0 0 0 - - -;
#X obj 324 540 outlet;
#X msg 378 422 seekwindow \$1;
#X msg 376 509 overlap \$1;
#X msg 43 477 \; sequence 40 \; seekwindow 20 \; overlap 10 \;;
#X obj 39 289 cnv 15 300 150 empty empty empty 20 12 0 14 -233017 -66577
0;
#X obj 52 325 hsl 200 15 10 100 0 0 empty empty set 20 8 0 10 -262144
-260097 -1 0 0;
#X floatatom 57 348 5 0 0 0 - - -;
#X msg 49 371 set \$1;
#X text 113 348 all settings at once in the ratio:;
#X text 52 301 range 10 - 100 milliseconds;
#X text 43 50 - sequence: signal grain size;
#X text 43 76 - seekwindow: margin for finding best overlap match;
#X text 43 102 - overlap: overlap size of grains;
#X text 42 451 [soundtouch~] defaults:;
#X text 39 138 You can experiment with these settings according to
your sound material. For easy of use \, the 'set' selector does all
three settings at once in a fixed ratio \, but they can be set individually
as well. Notice that changing settings in runtime can sometimes cause
disproportionate latency in [soundtouch~] \, which is only undone when
you reload the object. Alternatively \, you can initialize [soundtouch~]
with an optional single argument for sequence size \, from which the
other settings are derived in fixed ratio.;
#X text 42 568 Website of the SoundTouch library:;
#X text 41 593 http://www.surina.net/soundtouch/;
#X text 42 9 In Olli Parviainen's SoundTouch library \, these settings
are user-definable in milliseconds:;
#X text 373 540 to [soundtouch~] left inlet;
#X text 112 369 sequence 1;
#X text 112 390 seekwindow 0.5;
#X text 113 410 overlap 0.25;
#X connect 0 0 1 0;
#X connect 0 0 2 0;
#X connect 1 0 7 0;
#X connect 3 0 8 0;
#X connect 3 0 4 0;
#X connect 5 0 9 0;
#X connect 5 0 6 0;
#X connect 8 0 7 0;
#X connect 9 0 7 0;
#X connect 12 0 14 0;
#X connect 12 0 13 0;
#X connect 14 0 7 0;
#X restore 388 633 pd settings;
#X text 400 608 comment;
#X obj 330 402 spigot;
#X obj 363 377 > 12;
#X floatatom 330 430 5 0 0 0 - - -;
#X floatatom 330 479 5 0 0 0 - - -;
#X obj 330 453 - 12;
#X obj 567 358 < 12;
#X obj 584 384 +;
#X msg 609 482 1;
#X obj 589 407 sel 2;
#X obj 616 446 bng 15 250 50 0 empty empty empty 17 7 0 10 -262144
-1 -1;
#X obj 475 381 < -25;
#X obj 442 410 spigot;
#X floatatom 442 438 5 0 0 0 - - -;
#X floatatom 442 487 5 0 0 0 - - -;
#X obj 442 461 + 25;
#X obj 655 385 +;
#X obj 655 407 sel 2;
#X obj 632 358 > -25;
#X obj 380 406 bng 15 250 50 0 empty empty empty 17 7 0 10 -262144
-1 -1;
#X obj 200 143 del 105;
#X text 93 168 Spelare;
#X text 240 214 filnamet;
#X msg 222 314 Saved audio \$1 .wav;
#X obj 221 290 f;
#X text 337 362 större än 12;
#X text 446 361 mindre än -25;
#X text 530 329 andra pitch-factorn är inte aktiverad;
#X text 422 123 skillnad;
#X text 399 171 Hur mkt som ska pitchas;
#X text 115 600 0.25 - 4 eller -24 till 12 semitoner;
#X obj 600 357 >= 0;
#X obj 670 358 <= 0;
#X connect 1 0 2 0;
#X connect 1 0 0 0;
#X connect 2 0 3 0;
#X connect 2 0 4 1;
#X connect 4 0 36 0;
#X connect 5 0 4 0;
#X connect 6 0 7 0;
#X connect 9 0 10 0;
#X connect 9 0 4 0;
#X connect 10 0 11 0;
#X connect 10 1 12 0;
#X connect 12 0 6 0;
#X connect 12 0 62 0;
#X connect 13 0 7 0;
#X connect 14 0 9 0;
#X connect 15 0 14 0;
#X connect 16 0 23 0;
#X connect 16 0 29 1;
#X connect 16 0 19 0;
#X connect 17 0 22 0;
#X connect 17 0 28 0;
#X connect 18 0 30 1;
#X connect 18 0 62 1;
#X connect 19 0 21 0;
#X connect 19 0 15 0;
#X connect 19 0 58 0;
#X connect 20 0 26 0;
#X connect 20 0 29 0;
#X connect 21 0 20 0;
#X connect 22 0 23 1;
#X connect 23 0 24 0;
#X connect 24 0 26 1;
#X connect 25 0 1 0;
#X connect 25 0 40 0;
#X connect 25 0 39 0;
#X connect 25 0 44 0;
#X connect 25 0 49 0;
#X connect 25 0 50 0;
#X connect 25 0 56 0;
#X connect 25 0 69 0;
#X connect 25 0 70 0;
#X connect 26 0 25 0;
#X connect 27 0 16 0;
#X connect 28 0 27 0;
#X connect 29 0 18 0;
#X connect 30 0 13 0;
#X connect 33 0 34 0;
#X connect 33 0 32 0;
#X connect 34 0 35 0;
#X connect 34 0 36 1;
#X connect 36 0 7 0;
#X connect 36 0 7 1;
#X connect 37 0 36 0;
#X connect 39 0 41 0;
#X connect 40 0 39 1;
#X connect 40 0 57 0;
#X connect 41 0 43 0;
#X connect 42 0 33 0;
#X connect 43 0 42 0;
#X connect 44 0 45 0;
#X connect 45 0 47 0;
#X connect 46 0 33 0;
#X connect 47 0 48 0;
#X connect 48 0 46 0;
#X connect 49 0 50 1;
#X connect 50 0 51 0;
#X connect 51 0 53 0;
#X connect 52 0 33 0;
#X connect 53 0 52 0;
#X connect 54 0 55 0;
#X connect 55 0 48 0;
#X connect 56 0 54 0;
#X connect 58 0 30 0;
#X connect 61 0 8 0;
#X connect 62 0 61 0;
#X connect 69 0 45 1;
#X connect 70 0 54 1;
