#N canvas 541 49 1211 400 10;
#N canvas 179 22 726 720 storepitch 0;
#X obj 59 15 inlet~;
#X floatatom 60 249 5 0 0 0 - - -;
#X floatatom 132 249 5 0 0 0 - - -;
#X obj 59 196 fiddle~ 2048;
#X floatatom 63 357 5 0 0 0 - - -;
#X obj 61 291 expr if($f1 > 30 && $f1 < 108 \, $f1 \, 0) \;;
#X obj 362 137 tgl 15 0 empty empty empty 17 7 0 10 -262144 -1 -1 0
32.6652;
#X obj 154 458 print;
#X obj 59 156 *~;
#X obj 202 421 float;
#X obj 415 343 bng 15 250 50 0 empty empty empty 17 7 0 10 -262144
-1 -1;
#X obj 61 317 mavg 10;
#X obj 321 503 outlet;
#X obj 490 39 inlet;
#X obj 288 446 + 0.5;
#X obj 321 476 int;
#X obj 397 117 delay 500;
#X msg 360 92 bang;
#X msg 491 82 bang;
#N canvas 340 160 450 300 bang_on_sound 0;
#X obj 169 51 inlet~;
#X obj 171 180 outlet;
#X obj 168 79 env~;
#X obj 168 145 sel 1;
#X obj 168 122 change;
#X obj 168 101 > 0;
#X connect 0 0 2 0;
#X connect 2 0 5 0;
#X connect 3 0 1 0;
#X connect 4 0 3 0;
#X connect 5 0 4 0;
#X restore 124 34 pd bang_on_sound;
#X text 301 24 When bang is received: start detecting pitch (this could
be an inlet instead);
#X text 129 -2 when detecting sound send bang;
#X obj 488 147 s data;
#X obj 333 416 r data;
#X obj 377 497 outlet;
#X obj 378 452 float;
#X connect 0 0 8 0;
#X connect 0 0 19 0;
#X connect 1 0 5 0;
#X connect 3 2 1 0;
#X connect 3 3 2 0;
#X connect 4 0 9 1;
#X connect 5 0 11 0;
#X connect 6 0 8 1;
#X connect 8 0 3 0;
#X connect 9 0 7 0;
#X connect 9 0 14 0;
#X connect 9 0 25 0;
#X connect 10 0 9 0;
#X connect 11 0 4 0;
#X connect 13 0 18 0;
#X connect 14 0 15 0;
#X connect 15 0 12 0;
#X connect 16 0 6 0;
#X connect 16 0 10 0;
#X connect 17 0 16 0;
#X connect 17 0 6 0;
#X connect 18 0 22 0;
#X connect 19 0 17 0;
#X connect 23 0 15 0;
#X connect 23 0 25 0;
#X connect 25 0 24 0;
#X restore 411 40 pd storepitch;
#X obj 21 50 pr_record;
#X msg 487 14 output pitch;
#X obj 339 131 print;
#X floatatom 413 71 5 0 0 0 - - -;
#X text 46 31 Spelar in 1000 MS \, och sparar foo.wav;
#X msg 30 175 1 foo;
#X text 43 190 Spelar upp filen foo.wav (1 för DSP \; 0 för inget
DSP);
#X text 462 80 storepitch upptäcker vilken pitch det är på det inspelade
ljudet;
#X obj 673 151 until;
#X obj 760 181 + 1;
#N canvas 46 615 1605 300 lol 0;
#X obj -80 0 hej -46;
#X obj -120 0 hej -45;
#X obj -160 0 hej -44;
#X obj -200 0 hej -43;
#X obj -240 0 hej -42;
#X obj -280 0 hej -41;
#X obj -320 0 hej -40;
#X obj -360 0 hej -39;
#X obj -400 0 hej -38;
#X obj -440 0 hej -37;
#X obj -480 0 hej -36;
#X obj -520 0 hej -35;
#X obj -560 0 hej -34;
#X obj -600 0 hej -33;
#X obj -640 0 hej -32;
#X obj -680 0 hej -31;
#X obj -720 0 hej -30;
#X obj -760 0 hej -29;
#X obj -800 0 hej -28;
#X obj -840 0 hej -27;
#X obj -880 0 hej -26;
#X obj -920 0 hej -25;
#X obj -960 0 hej -24;
#X obj -1000 0 hej -23;
#X obj -1040 0 hej -22;
#X obj -1080 0 hej -21;
#X obj -1120 0 hej -20;
#X obj -1160 0 hej -19;
#X obj -1200 0 hej -18;
#X obj -1240 0 hej -17;
#X obj -1280 0 hej -16;
#X obj -1320 0 hej -15;
#X obj -1360 0 hej -14;
#X obj -1400 0 hej -13;
#X obj -1440 0 hej -12;
#X obj -1480 0 hej -11;
#X obj -1520 0 hej -10;
#X obj -1560 0 hej -9;
#X obj -1600 0 hej -8;
#X obj -1640 0 hej -7;
#X obj -1680 0 hej -6;
#X obj -1720 0 hej -5;
#X obj -1760 0 hej -4;
#X obj -1800 0 hej -3;
#X obj -1840 0 hej -2;
#X obj -1880 0 hej -1;
#X obj -1920 0 hej 0;
#X obj -1960 0 hej 1;
#X obj -2000 0 hej 2;
#X obj -2040 0 hej 3;
#X obj -2080 0 hej 4;
#X obj -2120 0 hej 5;
#X obj -2160 0 hej 6;
#X obj -2200 0 hej 7;
#X obj -2240 0 hej 8;
#X obj -2280 0 hej 9;
#X obj -2320 0 hej 10;
#X obj -2360 0 hej 11;
#X obj -2400 0 hej 12;
#X obj -2440 0 hej 13;
#X obj -2480 0 hej 14;
#X obj -2520 0 hej 15;
#X obj -2560 0 hej 16;
#X obj -2600 0 hej 17;
#X obj -2640 0 hej 18;
#X obj -2680 0 hej 19;
#X obj -2720 0 hej 20;
#X obj -2760 0 hej 21;
#X obj -2800 0 hej 22;
#X obj -2840 0 hej 23;
#X obj -2880 0 hej 24;
#X restore 476 221 pd lol;
#X obj 477 297 s pd-lol;
#X obj 673 177 f;
#X msg 719 138 0;
#X obj 540 243 pack 0 0;
#X msg 368 249 clear;
#X obj 30 215 pr_play~;
#X obj 421 150 s grund_pitch;
#X obj 27 92 del 10;
#X floatatom 897 56 5 0 0 0 - - -;
#X floatatom 851 58 5 0 0 0 - - -;
#X obj 848 144 pack f f f;
#X floatatom 925 105 5 0 0 0 - - -;
#X floatatom 925 125 5 0 0 0 - - -;
#X floatatom 925 145 5 0 0 0 - - -;
#X text 956 104 voice number;
#X text 958 124 note number;
#X text 957 144 velocity;
#X obj 851 88 poly 10 1;
#X obj 849 305 playnote;
#X obj 518 119 bng 15 250 50 0 empty empty empty 17 7 0 10 -262144
-1 -1;
#X obj 857 177 route 1 2 3 4 5 6 7 8 9 10;
#X obj 905 305 playnote;
#X obj 958 305 playnote;
#X obj 1011 305 playnote;
#X obj 1065 305 playnote;
#X obj 894 272 playnote;
#X obj 948 272 playnote;
#X obj 1001 272 playnote;
#X obj 1054 272 playnote;
#X obj 1108 272 playnote;
#X floatatom 1147 134 5 0 0 0 - - -;
#X floatatom 1096 136 5 0 0 0 - - -;
#X obj 1099 188 playnote;
#X obj 1095 158 pack f f;
#X obj 851 29 notein;
#X msg 21 14 1000 foo;
#X floatatom 532 65 5 0 0 0 - - -;
#X obj 607 35 hsl 128 15 40.1 50.2 0 0 empty empty empty -2 -8 0 10
-262144 -1 -1 0 1;
#X obj 616 111 del 2;
#X obj 407 212 del 1;
#X text 739 109 72;
#X text 699 208 -48;
#X msg 673 114 72;
#X obj 664 209 - 48;
#X obj 547 217 * -40;
#X text 900 27 Polyfoniskt;
#X msg 642 270 obj \$1 0 hej \$2;
#X msg 642 294 find hej -1 \, cut;
#X msg 267 301 find hej -1 \, cut;
#X msg 477 271 obj \$1 0 hej \$2;
#X connect 0 0 3 0;
#X connect 0 0 4 0;
#X connect 0 1 48 0;
#X connect 1 0 19 0;
#X connect 1 0 31 0;
#X connect 2 0 0 1;
#X connect 6 0 17 0;
#X connect 9 0 13 0;
#X connect 10 0 13 1;
#X connect 13 0 10 0;
#X connect 13 0 55 0;
#X connect 13 0 56 0;
#X connect 14 0 13 0;
#X connect 15 0 61 0;
#X connect 16 0 12 0;
#X connect 17 0 0 0;
#X connect 19 0 6 0;
#X connect 19 0 60 0;
#X connect 20 0 29 1;
#X connect 21 0 29 0;
#X connect 22 0 32 0;
#X connect 29 0 23 0;
#X connect 29 0 22 0;
#X connect 29 1 24 0;
#X connect 29 1 22 1;
#X connect 29 2 25 0;
#X connect 29 2 22 2;
#X connect 31 0 14 0;
#X connect 31 0 50 0;
#X connect 31 0 51 0;
#X connect 32 0 30 0;
#X connect 32 1 37 0;
#X connect 32 2 33 0;
#X connect 32 3 38 0;
#X connect 32 4 34 0;
#X connect 32 5 39 0;
#X connect 32 6 35 0;
#X connect 32 7 40 0;
#X connect 32 8 36 0;
#X connect 32 9 41 0;
#X connect 42 0 45 1;
#X connect 43 0 45 0;
#X connect 45 0 44 0;
#X connect 46 0 21 0;
#X connect 46 1 20 0;
#X connect 47 0 1 0;
#X connect 48 0 18 0;
#X connect 49 0 48 0;
#X connect 50 0 54 0;
#X connect 51 0 16 0;
#X connect 54 0 9 0;
#X connect 55 0 15 1;
#X connect 56 0 15 0;
#X connect 60 0 12 0;
#X connect 61 0 12 0;
