#N canvas 272 69 450 300 10;
#X obj 165 30 inlet;
#X obj 160 180 readsf~;
#X obj 160 232 dac~;
#X obj 278 184 print;
#X obj 165 55 \$1 \$2;
#X msg 165 90 open \$2.wav \, 1;
#X connect 0 0 4 0;
#X connect 1 0 2 0;
#X connect 1 0 2 1;
#X connect 4 0 5 0;
#X connect 5 0 1 0;
#X connect 5 0 3 0;
